<?xml version="1.0" encoding="UTF-8" standalone="no"?>
<!-- Created with Inkscape (http://www.inkscape.org/) -->

<svg
   version="1.1"
   id="svg1"
   width="800"
   height="800"
   viewBox="0 0 800 800"
   sodipodi:docname="icon.svg"
   inkscape:version="1.4.2 (ebf0e94, 2025-05-08)"
   inkscape:export-filename="icon.png"
   inkscape:export-xdpi="3.8399999"
   inkscape:export-ydpi="3.8399999"
   xmlns:inkscape="http://www.inkscape.org/namespaces/inkscape"
   xmlns:sodipodi="http://sodipodi.sourceforge.net/DTD/sodipodi-0.dtd"
   xmlns="http://www.w3.org/2000/svg"
   xmlns:svg="http://www.w3.org/2000/svg">
  <defs
     id="defs1">
    <rect
       x="405.4523"
       y="517.47213"
       width="333.8363"
       height="125.54614"
       id="rect2" />
  </defs>
  <sodipodi:namedview
     id="namedview1"
     pagecolor="#ffffff"
     bordercolor="#000000"
     borderopacity="0.25"
     inkscape:showpageshadow="2"
     inkscape:pageopacity="0.0"
     inkscape:pagecheckerboard="0"
     inkscape:deskcolor="#d1d1d1"
     showgrid="false"
     inkscape:zoom="0.71329395"
     inkscape:cx="343.47691"
     inkscape:cy="398.8538"
     inkscape:window-width="1920"
     inkscape:window-height="1009"
     inkscape:window-x="-8"
     inkscape:window-y="-8"
     inkscape:window-maximized="1"
     inkscape:current-layer="g1" />
  <g
     inkscape:groupmode="layer"
     inkscape:label="Image"
     id="g1">
    <path
       style="fill:#000080"
       d="m 158.41302,661.17621 c -11.70296,-4.04555 -21.02371,-12.86914 -25.73471,-24.36203 L 130.5,631.5 l -0.28565,-226 c -0.2032,-160.7642 0.0313,-227.85907 0.81244,-232.44047 2.86057,-16.77766 15.59229,-29.98327 31.8597,-33.04554 7.41037,-1.39498 467.79923,-1.40112 475.15386,-0.006 12.62961,2.39516 23.87419,10.9625 29.52108,22.49235 l 2.93857,6 V 401 633.5 l -2.9209,5.95775 c -5.25931,10.72738 -14.59602,18.7624 -25.5106,21.95399 -4.89592,1.43165 -28.75894,1.58504 -242,1.55561 -223.09458,-0.0308 -236.85823,-0.1328 -241.65548,-1.79114 z M 371.5,599.10642 c 11.58825,-2.40432 23.2626,-6.95007 33.14208,-12.90486 4.32186,-2.60497 21.13292,-14.43129 37.35792,-26.2807 16.225,-11.84942 46.80379,-34.1166 67.95286,-49.48263 50.23907,-36.5016 58.27468,-44.1811 68.99583,-65.93823 12.9488,-26.27783 14.10232,-53.31353 3.4773,-81.5 -1.34761,-3.575 -2.84308,-7.11795 -3.32327,-7.87323 -0.55961,-0.88019 0.17959,-4.25758 2.05887,-9.40692 9.85438,-27.00164 8.59603,-55.61196 -3.57611,-81.30759 -14.33544,-30.26242 -40.50563,-51.92468 -73.15252,-60.5517 -7.95238,-2.10144 -11.01861,-2.35291 -27.93296,-2.29089 -17.66684,0.0648 -19.6315,0.25978 -28,2.77918 -10.09778,3.04 -25.144,9.94674 -32.2742,14.81497 -2.59919,1.77463 -22.7258,16.26936 -44.7258,32.21052 -104.36022,75.61923 -107.79713,78.32668 -117.41122,92.49156 -20.03322,29.51584 -23.9978,63.34074 -11.38101,97.1002 3.25687,8.7146 3.43591,9.74664 2.25527,13 -5.59027,15.40444 -7.49653,37.67392 -4.55764,53.24371 4.50855,23.88565 15.02549,44.03897 31.82844,60.99195 16.50809,16.65548 38.09905,27.96506 60.68555,31.78775 9.0687,1.53485 29.14113,1.0754 38.58061,-0.88309 z M 332.38057,557.08016 C 304.03939,549.42301 283.06439,524.91503 280.53344,496.5 c -0.82411,-9.25229 0.0242,-10.42134 5.06889,-6.98565 6.48176,4.41439 19.3873,10.23311 28.54881,12.87182 29.46995,8.48794 60.96084,3.52078 85.84886,-13.54121 6.26926,-4.2979 87.64767,-63.43578 97.1695,-70.61329 9.14114,-6.89057 12.23215,-17.63908 7.74071,-26.91716 -5.0786,-10.49098 -17.72956,-14.76303 -27.78376,-9.38218 -2.15603,1.15387 -51.36621,36.7876 -86.95613,62.96606 -17.79707,13.09078 -26.62339,17.63222 -38.32054,19.71722 -38.55518,6.87238 -74.17642,-22.84067 -73.99169,-61.71934 0.0498,-10.48086 1.36176,-16.19111 5.87746,-25.58127 5.19517,-10.80311 12.05484,-17.56736 33.55748,-33.09072 29.64852,-21.40408 63.50588,-45.96397 95.26737,-69.10626 30.76775,-22.41822 38.40198,-27.09852 48.56395,-29.773 8.50932,-2.23952 24.31329,-2.1992 32.87565,0.0839 20.03672,5.34261 36.87973,19.43814 45.61278,38.17229 4.29244,9.20814 5.33295,13.9827 5.36277,24.60807 l 0.0245,8.70925 -8.03642,-4.8811 C 518.79281,301.00099 503.39762,296.65479 482.5,296.66187 c -19.9466,0.007 -34.48978,3.8407 -49.75303,13.11611 -5.02014,3.05072 -35.70741,24.97706 -62.74697,44.83328 -5.26784,3.86839 -29.14572,21.26199 -41.03115,29.88874 -4.54655,3.3 -9.37884,7.67926 -10.73843,9.7317 -8.5242,12.86816 2.17856,31.99907 17.90184,31.99907 6.72247,0 10.48877,-2.14207 34.36774,-19.5465 84.07607,-61.27971 85.89995,-62.54931 93.5,-65.0852 7.98939,-2.6658 24.61172,-3.2404 33.5,-1.15804 12.16523,2.85009 20.9304,7.87413 30.5359,17.50263 C 540.89401,370.83257 546,382.78637 546,400 c 0,10.55807 -1.83441,18.07762 -6.9702,28.57206 -5.70865,11.665 -12.49077,17.95353 -44.0605,40.85391 -15.10811,10.95929 -43.4443,31.64385 -62.9693,45.96571 -58.03303,42.56802 -58.18657,42.65105 -80,43.26193 -10.01131,0.28037 -13.91744,-0.0329 -19.61943,-1.57345 z"
       id="path1" />
    <path
       style="fill:#ffffff;fill-opacity:1;stroke:#000000;stroke-width:0.280389;stroke-opacity:0.57"
       d="m 331.91084,599.39421 c -11.12565,-2.15848 -22.70838,-6.20414 -31.89428,-11.14016 -20.7014,-11.12382 -39.35216,-30.44849 -49.40009,-51.18504 -3.92884,-8.10821 -7.57369,-19.04557 -9.47387,-28.42888 -2.77389,-13.69785 -1.66402,-34.78843 2.57961,-49.01966 0.99892,-3.34992 1.95429,-6.88365 2.12305,-7.85273 0.17273,-0.99189 -1.2183,-6.35326 -3.18274,-12.26703 -4.07407,-12.26468 -5.5828,-19.18406 -6.39468,-29.32754 -1.78386,-22.28734 4.24092,-44.79116 17.29311,-64.59335 7.60668,-11.5405 13.29132,-16.73125 41.19831,-37.61894 15.55009,-11.63885 64.95855,-47.62642 102.14601,-74.39995 24.98997,-17.9918 32.95763,-22.49127 50.26996,-28.38829 l 7.40593,-2.52264 20.21395,-0.26641 c 22.5279,-0.2969 24.78305,-0.0264 37.93575,4.54958 33.25285,11.56917 59.01501,37.84514 69.63926,71.02816 3.71369,11.5991 4.63724,17.91767 4.60686,31.51837 -0.0305,13.63885 -1.13437,20.54288 -5.48726,34.31858 -3.27657,10.3694 -3.25954,10.20399 -1.46793,14.26226 2.79388,6.32851 6.5145,18.80553 7.77486,26.07281 1.77296,10.2229 1.63126,24.58795 -0.33536,33.9972 -2.03864,9.75377 -4.25797,16.26222 -8.73338,25.61159 -9.04045,18.88599 -17.80059,28.12903 -48.44163,51.11196 -17.76987,13.32863 -97.76647,71.52788 -113.20719,82.36065 -16.9912,11.92054 -29.89772,18.06752 -44.99893,21.43157 -7.11137,1.58419 -33.3415,2.07254 -40.16932,0.74789 z m 36.79993,-42.13823 c 8.31904,-2.57156 18.0284,-8.50252 40.3952,-24.67541 27.81318,-20.11102 99.8316,-72.85541 105.40841,-77.19833 14.33552,-11.16375 20.26942,-17.51435 24.80507,-26.54698 4.95194,-9.86167 6.71856,-17.47139 6.71619,-28.93001 -0.004,-17.99945 -4.6331,-29.00037 -17.62619,-41.88557 -13.47384,-13.36195 -24.16886,-18.17798 -41.934,-18.88312 -11.42463,-0.45347 -20.47379,0.88116 -26.95847,3.97601 -5.41598,2.58481 -19.1449,12.19414 -62.76611,43.93212 -41.82039,30.42773 -46.85401,33.93446 -52.63711,36.67031 -7.57371,3.58294 -14.54602,2.50713 -20.92572,-3.22876 -4.97725,-4.47498 -7.3671,-9.68608 -7.33758,-15.99968 0.0288,-6.16643 1.56669,-9.355 6.83355,-14.16862 6.84125,-6.25252 103.26151,-76.07334 112.53041,-81.48667 2.57023,-1.50109 7.41883,-3.86584 10.77465,-5.25499 20.21257,-8.36702 48.42356,-8.77639 70.40981,-1.02174 7.24863,2.55663 11.7996,4.78612 21.37152,10.46974 3.85894,2.29137 7.18748,4.16612 7.39677,4.16612 0.20929,0 0.22314,-4.65271 0.0308,-10.33935 -0.29576,-8.74397 -0.63576,-11.1823 -2.20341,-15.80227 -6.31596,-18.61352 -19.62254,-33.36477 -37.72546,-41.82124 -10.08278,-4.71 -13.19318,-5.28894 -28.25679,-5.25942 -22.72113,0.0445 -21.29506,-0.7185 -84.46728,45.19406 -16.77079,12.18874 -40.90179,29.68345 -53.62446,38.87715 -47.19547,34.10455 -51.55278,38.20751 -57.82711,54.45141 -5.72609,14.82456 -4.2845,34.98602 3.54193,49.53592 11.93933,22.19608 34.03437,34.71908 59.192,33.54875 9.84196,-0.45786 16.1986,-2.06092 24.39987,-6.15333 7.72891,-3.85672 13.14116,-7.57892 47.44989,-32.63301 44.46671,-32.47201 60.32676,-43.77145 63.43808,-45.19626 4.14775,-1.89943 10.98915,-1.7403 15.42141,0.35869 13.1645,6.23435 15.88017,22.67758 5.45416,33.02467 -2.85082,2.82924 -19.83861,15.37402 -71.56917,52.85085 -28.5796,20.70483 -33.75002,24.20727 -41.54286,28.14108 -6.21968,3.13968 -19.56567,7.39271 -27.22777,8.67677 -8.70431,1.45874 -25.12024,1.45108 -33.75015,-0.0157 -12.04161,-2.0467 -27.8015,-7.93314 -37.98843,-14.18898 -5.68937,-3.49386 -7.24468,-3.6738 -7.85206,-0.90843 -0.45895,2.08959 0.43199,10.79656 1.66038,16.22657 5.66624,25.04721 27.22649,46.31647 52.99399,52.27876 6.01222,1.39115 28.65154,0.871 33.99604,-0.78108 z"
       id="path2" />
  </g>
</svg>
